<mxfile host="app.diagrams.net" modified="2024-04-07T20:17:31.157Z" agent="Mozilla/5.0 (X11; Ubuntu; Linux x86_64; rv:123.0) Gecko/20100101 Firefox/123.0" etag="6N49HtjyoZgMiDYBcKKa" version="24.2.2" type="device">
  <diagram name="Page-1" id="gmL0WJdU4DssKB-ukMWe">
    <mxGraphModel dx="4568" dy="1644" grid="1" gridSize="10" guides="1" tooltips="1" connect="1" arrows="1" fold="1" page="1" pageScale="1" pageWidth="850" pageHeight="1100" background="#FFFFFF" math="0" shadow="0">
      <root>
        <mxCell id="0" />
        <mxCell id="1" parent="0" />
        <mxCell id="6hXu5btZvPiJTdBJPoFO-409" value="" style="rounded=1;whiteSpace=wrap;html=1;fontFamily=Helvetica;fontSize=11;fontColor=default;labelBackgroundColor=default;fillColor=none;strokeColor=none;" vertex="1" parent="1">
          <mxGeometry x="-1000" y="202" width="1230" height="788" as="geometry" />
        </mxCell>
        <mxCell id="6hXu5btZvPiJTdBJPoFO-337" value="related to" style="rhombus;whiteSpace=wrap;html=1;strokeColor=default;align=center;verticalAlign=middle;fontFamily=Helvetica;fontSize=8;fontColor=default;labelBackgroundColor=default;fillColor=default;gradientColor=none;" vertex="1" parent="1">
          <mxGeometry x="-142.42000000000002" y="505.25" width="63.48" height="51" as="geometry" />
        </mxCell>
        <mxCell id="6hXu5btZvPiJTdBJPoFO-336" value="related to" style="rhombus;whiteSpace=wrap;html=1;strokeColor=default;align=center;verticalAlign=middle;fontFamily=Helvetica;fontSize=8;fontColor=default;labelBackgroundColor=default;fillColor=default;gradientColor=none;" vertex="1" parent="1">
          <mxGeometry x="-300.56" y="508" width="63.48" height="51" as="geometry" />
        </mxCell>
        <mxCell id="6hXu5btZvPiJTdBJPoFO-115" value="" style="edgeStyle=orthogonalEdgeStyle;rounded=0;orthogonalLoop=1;jettySize=auto;html=1;strokeColor=default;align=center;verticalAlign=middle;fontFamily=Helvetica;fontSize=12;fontColor=default;labelBackgroundColor=default;endArrow=none;endFill=0;" edge="1" parent="1" source="6hXu5btZvPiJTdBJPoFO-99" target="6hXu5btZvPiJTdBJPoFO-5">
          <mxGeometry relative="1" as="geometry" />
        </mxCell>
        <mxCell id="6hXu5btZvPiJTdBJPoFO-99" value="&lt;font style=&quot;font-size: 8px;&quot;&gt;wrote by&lt;/font&gt;" style="rhombus;whiteSpace=wrap;html=1;strokeColor=default;align=center;verticalAlign=middle;fontFamily=Helvetica;fontSize=8;fontColor=default;labelBackgroundColor=default;fillColor=default;gradientColor=none;" vertex="1" parent="1">
          <mxGeometry x="-379.65999999999997" y="576" width="75" height="60" as="geometry" />
        </mxCell>
        <mxCell id="6hXu5btZvPiJTdBJPoFO-235" style="edgeStyle=orthogonalEdgeStyle;rounded=0;orthogonalLoop=1;jettySize=auto;html=1;entryX=0;entryY=1;entryDx=0;entryDy=0;strokeColor=default;align=center;verticalAlign=middle;fontFamily=Helvetica;fontSize=12;fontColor=default;labelBackgroundColor=default;endArrow=none;endFill=0;" edge="1" parent="1" source="6hXu5btZvPiJTdBJPoFO-1" target="6hXu5btZvPiJTdBJPoFO-233">
          <mxGeometry relative="1" as="geometry">
            <Array as="points">
              <mxPoint x="-270" y="450" />
              <mxPoint x="-270" y="361" />
              <mxPoint x="-211" y="361" />
            </Array>
          </mxGeometry>
        </mxCell>
        <mxCell id="6hXu5btZvPiJTdBJPoFO-373" style="edgeStyle=orthogonalEdgeStyle;rounded=0;orthogonalLoop=1;jettySize=auto;html=1;strokeColor=default;align=center;verticalAlign=middle;fontFamily=Helvetica;fontSize=11;fontColor=default;labelBackgroundColor=default;endArrow=none;endFill=0;entryX=0.5;entryY=1;entryDx=0;entryDy=0;" edge="1" parent="1" source="6hXu5btZvPiJTdBJPoFO-1" target="6hXu5btZvPiJTdBJPoFO-119">
          <mxGeometry relative="1" as="geometry">
            <mxPoint x="-369.6600000000001" y="350" as="targetPoint" />
          </mxGeometry>
        </mxCell>
        <mxCell id="6hXu5btZvPiJTdBJPoFO-1" value="&lt;font style=&quot;font-size: 14px;&quot;&gt;Article&lt;/font&gt;" style="rounded=0;whiteSpace=wrap;html=1;fontSize=14;strokeWidth=1;" vertex="1" parent="1">
          <mxGeometry x="-419.65999999999997" y="442.5" width="100" height="50" as="geometry" />
        </mxCell>
        <mxCell id="6hXu5btZvPiJTdBJPoFO-374" style="edgeStyle=orthogonalEdgeStyle;rounded=0;orthogonalLoop=1;jettySize=auto;html=1;entryX=0.5;entryY=0;entryDx=0;entryDy=0;strokeColor=default;align=center;verticalAlign=middle;fontFamily=Helvetica;fontSize=11;fontColor=default;labelBackgroundColor=default;endArrow=none;endFill=0;" edge="1" parent="1" source="6hXu5btZvPiJTdBJPoFO-2" target="6hXu5btZvPiJTdBJPoFO-22">
          <mxGeometry relative="1" as="geometry">
            <Array as="points">
              <mxPoint x="-849" y="263" />
            </Array>
          </mxGeometry>
        </mxCell>
        <mxCell id="6hXu5btZvPiJTdBJPoFO-2" value="&lt;font style=&quot;font-size: 14px;&quot;&gt;Topic&lt;/font&gt;" style="rounded=0;whiteSpace=wrap;html=1;fontSize=14;strokeWidth=1;" vertex="1" parent="1">
          <mxGeometry x="-817.6899999999999" y="237.75" width="100" height="50" as="geometry" />
        </mxCell>
        <mxCell id="6hXu5btZvPiJTdBJPoFO-242" style="edgeStyle=orthogonalEdgeStyle;rounded=0;orthogonalLoop=1;jettySize=auto;html=1;entryX=0.5;entryY=0;entryDx=0;entryDy=0;strokeColor=default;align=center;verticalAlign=middle;fontFamily=Helvetica;fontSize=12;fontColor=default;labelBackgroundColor=default;endArrow=none;endFill=0;" edge="1" parent="1" source="6hXu5btZvPiJTdBJPoFO-3" target="6hXu5btZvPiJTdBJPoFO-46">
          <mxGeometry relative="1" as="geometry">
            <Array as="points">
              <mxPoint x="-8.78" y="783.12" />
              <mxPoint x="-8.78" y="783.12" />
            </Array>
          </mxGeometry>
        </mxCell>
        <mxCell id="6hXu5btZvPiJTdBJPoFO-243" style="edgeStyle=orthogonalEdgeStyle;rounded=0;orthogonalLoop=1;jettySize=auto;html=1;entryX=0.5;entryY=0;entryDx=0;entryDy=0;strokeColor=default;align=center;verticalAlign=middle;fontFamily=Helvetica;fontSize=12;fontColor=default;labelBackgroundColor=default;endArrow=none;endFill=0;" edge="1" parent="1" source="6hXu5btZvPiJTdBJPoFO-3" target="6hXu5btZvPiJTdBJPoFO-21">
          <mxGeometry relative="1" as="geometry">
            <Array as="points">
              <mxPoint x="61.22" y="763.12" />
              <mxPoint x="61.22" y="783.12" />
            </Array>
          </mxGeometry>
        </mxCell>
        <mxCell id="6hXu5btZvPiJTdBJPoFO-250" style="edgeStyle=orthogonalEdgeStyle;rounded=0;orthogonalLoop=1;jettySize=auto;html=1;entryX=0.5;entryY=1;entryDx=0;entryDy=0;strokeColor=default;align=center;verticalAlign=middle;fontFamily=Helvetica;fontSize=12;fontColor=default;labelBackgroundColor=default;endArrow=none;endFill=0;" edge="1" parent="1" source="6hXu5btZvPiJTdBJPoFO-3" target="6hXu5btZvPiJTdBJPoFO-246">
          <mxGeometry relative="1" as="geometry" />
        </mxCell>
        <mxCell id="6hXu5btZvPiJTdBJPoFO-3" value="&lt;font style=&quot;font-size: 14px;&quot;&gt;Institution&lt;/font&gt;" style="rounded=0;whiteSpace=wrap;html=1;fontSize=14;strokeWidth=1;" vertex="1" parent="1">
          <mxGeometry x="-75.66000000000005" y="720" width="100" height="50" as="geometry" />
        </mxCell>
        <mxCell id="6hXu5btZvPiJTdBJPoFO-239" style="edgeStyle=orthogonalEdgeStyle;rounded=0;orthogonalLoop=1;jettySize=auto;html=1;entryX=1;entryY=0.5;entryDx=0;entryDy=0;strokeColor=default;align=center;verticalAlign=middle;fontFamily=Helvetica;fontSize=12;fontColor=default;labelBackgroundColor=default;endArrow=none;endFill=0;" edge="1" parent="1" source="6hXu5btZvPiJTdBJPoFO-4" target="6hXu5btZvPiJTdBJPoFO-234">
          <mxGeometry relative="1" as="geometry" />
        </mxCell>
        <mxCell id="6hXu5btZvPiJTdBJPoFO-240" style="edgeStyle=orthogonalEdgeStyle;rounded=0;orthogonalLoop=1;jettySize=auto;html=1;entryX=1;entryY=0.5;entryDx=0;entryDy=0;strokeColor=default;align=center;verticalAlign=middle;fontFamily=Helvetica;fontSize=12;fontColor=default;labelBackgroundColor=default;endArrow=none;endFill=0;" edge="1" parent="1" source="6hXu5btZvPiJTdBJPoFO-4" target="6hXu5btZvPiJTdBJPoFO-233">
          <mxGeometry relative="1" as="geometry">
            <Array as="points">
              <mxPoint x="-110" y="450" />
              <mxPoint x="-110" y="360" />
            </Array>
          </mxGeometry>
        </mxCell>
        <mxCell id="6hXu5btZvPiJTdBJPoFO-253" style="edgeStyle=orthogonalEdgeStyle;rounded=0;orthogonalLoop=1;jettySize=auto;html=1;strokeColor=default;align=center;verticalAlign=middle;fontFamily=Helvetica;fontSize=12;fontColor=default;labelBackgroundColor=default;endArrow=none;endFill=0;" edge="1" parent="1" source="6hXu5btZvPiJTdBJPoFO-4">
          <mxGeometry relative="1" as="geometry">
            <mxPoint x="-25.659999999999854" y="250" as="targetPoint" />
          </mxGeometry>
        </mxCell>
        <mxCell id="6hXu5btZvPiJTdBJPoFO-284" style="edgeStyle=orthogonalEdgeStyle;rounded=0;orthogonalLoop=1;jettySize=auto;html=1;exitX=1;exitY=0.75;exitDx=0;exitDy=0;strokeColor=default;align=center;verticalAlign=middle;fontFamily=Helvetica;fontSize=12;fontColor=default;labelBackgroundColor=default;endArrow=none;endFill=0;" edge="1" parent="1" source="6hXu5btZvPiJTdBJPoFO-4">
          <mxGeometry relative="1" as="geometry">
            <mxPoint x="170" y="479.95238095238096" as="targetPoint" />
          </mxGeometry>
        </mxCell>
        <mxCell id="6hXu5btZvPiJTdBJPoFO-4" value="&lt;font style=&quot;font-size: 14px;&quot;&gt;User&lt;/font&gt;" style="rounded=0;whiteSpace=wrap;html=1;fontSize=14;strokeWidth=1;" vertex="1" parent="1">
          <mxGeometry x="-75.66000000000008" y="442.5" width="100" height="50" as="geometry" />
        </mxCell>
        <mxCell id="6hXu5btZvPiJTdBJPoFO-5" value="&lt;font style=&quot;font-size: 14px;&quot;&gt;Author&lt;/font&gt;" style="rounded=0;whiteSpace=wrap;html=1;fontSize=14;strokeWidth=1;" vertex="1" parent="1">
          <mxGeometry x="-392.1599999999999" y="720" width="100" height="50" as="geometry" />
        </mxCell>
        <mxCell id="6hXu5btZvPiJTdBJPoFO-357" style="edgeStyle=orthogonalEdgeStyle;rounded=0;orthogonalLoop=1;jettySize=auto;html=1;strokeColor=default;align=center;verticalAlign=middle;fontFamily=Helvetica;fontSize=11;fontColor=default;labelBackgroundColor=default;endArrow=none;endFill=0;" edge="1" parent="1" source="6hXu5btZvPiJTdBJPoFO-6">
          <mxGeometry relative="1" as="geometry">
            <mxPoint x="-420" y="464" as="targetPoint" />
            <Array as="points">
              <mxPoint x="-483" y="464" />
            </Array>
          </mxGeometry>
        </mxCell>
        <mxCell id="6hXu5btZvPiJTdBJPoFO-6" value="&lt;span style=&quot;font-size: 10px;&quot;&gt;ArticleID&lt;/span&gt;" style="ellipse;whiteSpace=wrap;html=1;fontSize=10;strokeWidth=1;" vertex="1" parent="1">
          <mxGeometry x="-513.9199999999998" y="423.75" width="64.26" height="30" as="geometry" />
        </mxCell>
        <mxCell id="6hXu5btZvPiJTdBJPoFO-7" value="Title" style="ellipse;whiteSpace=wrap;html=1;fontSize=10;strokeWidth=1;" vertex="1" parent="1">
          <mxGeometry x="-482" y="559" width="60.34" height="27" as="geometry" />
        </mxCell>
        <mxCell id="6hXu5btZvPiJTdBJPoFO-8" value="Abstract" style="ellipse;whiteSpace=wrap;html=1;fontSize=10;strokeWidth=1;" vertex="1" parent="1">
          <mxGeometry x="-494.16" y="525" width="59" height="31" as="geometry" />
        </mxCell>
        <mxCell id="6hXu5btZvPiJTdBJPoFO-10" value="DOI" style="ellipse;whiteSpace=wrap;html=1;fontSize=10;strokeWidth=1;" vertex="1" parent="1">
          <mxGeometry x="-584.56" y="430.25" width="61.9" height="27.5" as="geometry" />
        </mxCell>
        <mxCell id="6hXu5btZvPiJTdBJPoFO-220" style="edgeStyle=orthogonalEdgeStyle;rounded=0;orthogonalLoop=1;jettySize=auto;html=1;entryX=0.101;entryY=0.398;entryDx=0;entryDy=0;strokeColor=default;align=center;verticalAlign=middle;fontFamily=Helvetica;fontSize=12;fontColor=default;labelBackgroundColor=default;endArrow=none;endFill=0;entryPerimeter=0;" edge="1" parent="1" target="6hXu5btZvPiJTdBJPoFO-119">
          <mxGeometry relative="1" as="geometry">
            <mxPoint x="-480.6899999999999" y="306.75" as="sourcePoint" />
            <mxPoint x="-406.24999999999983" y="306.75" as="targetPoint" />
          </mxGeometry>
        </mxCell>
        <mxCell id="6hXu5btZvPiJTdBJPoFO-12" value="&lt;font style=&quot;font-size: 14px;&quot;&gt;Keyword&lt;/font&gt;" style="rounded=0;whiteSpace=wrap;html=1;fontSize=14;strokeWidth=1;" vertex="1" parent="1">
          <mxGeometry x="-580.69" y="287.75" width="100" height="50" as="geometry" />
        </mxCell>
        <mxCell id="6hXu5btZvPiJTdBJPoFO-190" style="edgeStyle=orthogonalEdgeStyle;rounded=0;orthogonalLoop=1;jettySize=auto;html=1;entryX=0;entryY=0.5;entryDx=0;entryDy=0;strokeColor=default;align=center;verticalAlign=middle;fontFamily=Helvetica;fontSize=12;fontColor=default;labelBackgroundColor=default;endArrow=none;endFill=0;" edge="1" parent="1" source="6hXu5btZvPiJTdBJPoFO-14" target="6hXu5btZvPiJTdBJPoFO-5">
          <mxGeometry relative="1" as="geometry">
            <Array as="points">
              <mxPoint x="-430" y="745" />
            </Array>
          </mxGeometry>
        </mxCell>
        <mxCell id="6hXu5btZvPiJTdBJPoFO-14" value="&lt;span style=&quot;font-size: 10px;&quot;&gt;AuthorID&lt;/span&gt;" style="ellipse;whiteSpace=wrap;html=1;fontSize=10;strokeWidth=1;" vertex="1" parent="1">
          <mxGeometry x="-464.65999999999997" y="779.5" width="60" height="30" as="geometry" />
        </mxCell>
        <mxCell id="6hXu5btZvPiJTdBJPoFO-107" style="edgeStyle=orthogonalEdgeStyle;rounded=0;orthogonalLoop=1;jettySize=auto;html=1;entryX=0.25;entryY=1;entryDx=0;entryDy=0;strokeColor=default;align=center;verticalAlign=middle;fontFamily=Helvetica;fontSize=12;fontColor=default;labelBackgroundColor=default;endArrow=none;endFill=0;" edge="1" parent="1" source="6hXu5btZvPiJTdBJPoFO-17">
          <mxGeometry relative="1" as="geometry">
            <mxPoint x="-374.15999999999997" y="770" as="targetPoint" />
            <Array as="points" />
          </mxGeometry>
        </mxCell>
        <mxCell id="6hXu5btZvPiJTdBJPoFO-17" value="ORCID" style="ellipse;whiteSpace=wrap;html=1;fontSize=10;strokeWidth=1;" vertex="1" parent="1">
          <mxGeometry x="-403.65999999999997" y="800" width="60" height="32.5" as="geometry" />
        </mxCell>
        <mxCell id="6hXu5btZvPiJTdBJPoFO-21" value="Address" style="ellipse;whiteSpace=wrap;html=1;fontSize=10;strokeWidth=1;" vertex="1" parent="1">
          <mxGeometry x="30.219999999999942" y="783.12" width="60" height="35" as="geometry" />
        </mxCell>
        <mxCell id="6hXu5btZvPiJTdBJPoFO-22" value="&lt;span style=&quot;font-size: 10px;&quot;&gt;TopicID&lt;/span&gt;" style="ellipse;whiteSpace=wrap;html=1;fontSize=10;strokeWidth=1;" vertex="1" parent="1">
          <mxGeometry x="-883.9499999999998" y="289.75" width="70" height="40" as="geometry" />
        </mxCell>
        <mxCell id="6hXu5btZvPiJTdBJPoFO-376" style="edgeStyle=orthogonalEdgeStyle;rounded=0;orthogonalLoop=1;jettySize=auto;html=1;entryX=1;entryY=0.75;entryDx=0;entryDy=0;strokeColor=default;align=center;verticalAlign=middle;fontFamily=Helvetica;fontSize=11;fontColor=default;labelBackgroundColor=default;endArrow=none;endFill=0;" edge="1" parent="1" source="6hXu5btZvPiJTdBJPoFO-24" target="6hXu5btZvPiJTdBJPoFO-2">
          <mxGeometry relative="1" as="geometry">
            <Array as="points">
              <mxPoint x="-670" y="275" />
            </Array>
          </mxGeometry>
        </mxCell>
        <mxCell id="6hXu5btZvPiJTdBJPoFO-24" value="Description" style="ellipse;whiteSpace=wrap;html=1;fontSize=10;strokeWidth=1;" vertex="1" parent="1">
          <mxGeometry x="-706.1899999999999" y="290.5" width="72.5" height="40" as="geometry" />
        </mxCell>
        <mxCell id="6hXu5btZvPiJTdBJPoFO-283" style="edgeStyle=orthogonalEdgeStyle;rounded=0;orthogonalLoop=1;jettySize=auto;html=1;entryX=0.75;entryY=1;entryDx=0;entryDy=0;strokeColor=default;align=center;verticalAlign=middle;fontFamily=Helvetica;fontSize=12;fontColor=default;labelBackgroundColor=default;endArrow=none;endFill=0;" edge="1" parent="1" source="6hXu5btZvPiJTdBJPoFO-25" target="6hXu5btZvPiJTdBJPoFO-4">
          <mxGeometry relative="1" as="geometry">
            <Array as="points">
              <mxPoint x="-1" y="548" />
              <mxPoint x="-1" y="508" />
            </Array>
          </mxGeometry>
        </mxCell>
        <mxCell id="6hXu5btZvPiJTdBJPoFO-25" value="Password" style="ellipse;whiteSpace=wrap;html=1;fontSize=10;strokeWidth=1;" vertex="1" parent="1">
          <mxGeometry x="26.469999999999885" y="527.5" width="68.75" height="40" as="geometry" />
        </mxCell>
        <mxCell id="6hXu5btZvPiJTdBJPoFO-256" style="edgeStyle=orthogonalEdgeStyle;rounded=0;orthogonalLoop=1;jettySize=auto;html=1;entryX=1.001;entryY=0.356;entryDx=0;entryDy=0;strokeColor=default;align=center;verticalAlign=middle;fontFamily=Helvetica;fontSize=12;fontColor=default;labelBackgroundColor=default;endArrow=none;endFill=0;entryPerimeter=0;" edge="1" parent="1" source="6hXu5btZvPiJTdBJPoFO-26">
          <mxGeometry relative="1" as="geometry">
            <mxPoint x="24.440000000000055" y="458.30000000000007" as="targetPoint" />
            <Array as="points">
              <mxPoint x="153" y="458" />
              <mxPoint x="52" y="458" />
            </Array>
          </mxGeometry>
        </mxCell>
        <mxCell id="6hXu5btZvPiJTdBJPoFO-26" value="&lt;span style=&quot;font-size: 10px;&quot;&gt;UserID&lt;/span&gt;" style="ellipse;whiteSpace=wrap;html=1;fontSize=10;strokeWidth=1;" vertex="1" parent="1">
          <mxGeometry x="121.22" y="365" width="68.75" height="35" as="geometry" />
        </mxCell>
        <mxCell id="6hXu5btZvPiJTdBJPoFO-257" style="edgeStyle=orthogonalEdgeStyle;rounded=0;orthogonalLoop=1;jettySize=auto;html=1;entryX=0.75;entryY=0;entryDx=0;entryDy=0;strokeColor=default;align=center;verticalAlign=middle;fontFamily=Helvetica;fontSize=12;fontColor=default;labelBackgroundColor=default;endArrow=none;endFill=0;" edge="1" parent="1">
          <mxGeometry relative="1" as="geometry">
            <mxPoint x="55" y="409.2500000000001" as="sourcePoint" />
            <mxPoint x="14.340000000000146" y="442.5" as="targetPoint" />
            <Array as="points">
              <mxPoint x="14" y="409" />
            </Array>
          </mxGeometry>
        </mxCell>
        <mxCell id="6hXu5btZvPiJTdBJPoFO-28" value="Email" style="ellipse;whiteSpace=wrap;html=1;fontSize=10;strokeWidth=1;" vertex="1" parent="1">
          <mxGeometry x="40" y="390.5" width="70.62" height="37.5" as="geometry" />
        </mxCell>
        <mxCell id="6hXu5btZvPiJTdBJPoFO-68" value="" style="edgeStyle=orthogonalEdgeStyle;rounded=0;orthogonalLoop=1;jettySize=auto;html=1;align=center;verticalAlign=middle;fontFamily=Helvetica;fontSize=10;fontColor=default;labelBackgroundColor=default;endArrow=none;endFill=0;strokeWidth=1;" edge="1" parent="1" source="6hXu5btZvPiJTdBJPoFO-34" target="6hXu5btZvPiJTdBJPoFO-37">
          <mxGeometry relative="1" as="geometry">
            <Array as="points">
              <mxPoint x="-806.95" y="819.38" />
              <mxPoint x="-853.95" y="819.38" />
            </Array>
          </mxGeometry>
        </mxCell>
        <mxCell id="6hXu5btZvPiJTdBJPoFO-70" value="" style="edgeStyle=orthogonalEdgeStyle;rounded=0;orthogonalLoop=1;jettySize=auto;html=1;align=center;verticalAlign=middle;fontFamily=Helvetica;fontSize=10;fontColor=default;labelBackgroundColor=default;endArrow=none;endFill=0;strokeWidth=1;" edge="1" parent="1" source="6hXu5btZvPiJTdBJPoFO-34" target="6hXu5btZvPiJTdBJPoFO-35">
          <mxGeometry relative="1" as="geometry" />
        </mxCell>
        <mxCell id="6hXu5btZvPiJTdBJPoFO-71" value="" style="edgeStyle=orthogonalEdgeStyle;rounded=0;orthogonalLoop=1;jettySize=auto;html=1;align=center;verticalAlign=middle;fontFamily=Helvetica;fontSize=10;fontColor=default;labelBackgroundColor=default;endArrow=none;endFill=0;strokeWidth=1;entryX=0.5;entryY=0;entryDx=0;entryDy=0;" edge="1" parent="1" target="6hXu5btZvPiJTdBJPoFO-41">
          <mxGeometry relative="1" as="geometry">
            <mxPoint x="-799.6400000000001" y="866.38" as="sourcePoint" />
            <mxPoint x="-947.95" y="896.38" as="targetPoint" />
            <Array as="points">
              <mxPoint x="-917.95" y="866.38" />
              <mxPoint x="-917.95" y="896.38" />
              <mxPoint x="-912.95" y="896.38" />
            </Array>
          </mxGeometry>
        </mxCell>
        <mxCell id="6hXu5btZvPiJTdBJPoFO-72" value="" style="edgeStyle=orthogonalEdgeStyle;rounded=0;orthogonalLoop=1;jettySize=auto;html=1;align=center;verticalAlign=middle;fontFamily=Helvetica;fontSize=10;fontColor=default;labelBackgroundColor=default;endArrow=none;endFill=0;strokeWidth=1;" edge="1" parent="1" source="6hXu5btZvPiJTdBJPoFO-34" target="6hXu5btZvPiJTdBJPoFO-38">
          <mxGeometry relative="1" as="geometry">
            <Array as="points">
              <mxPoint x="-806.95" y="899.38" />
              <mxPoint x="-853.95" y="899.38" />
            </Array>
          </mxGeometry>
        </mxCell>
        <mxCell id="6hXu5btZvPiJTdBJPoFO-34" value="Journal" style="rounded=0;whiteSpace=wrap;html=1;fontSize=14;strokeWidth=1;" vertex="1" parent="1">
          <mxGeometry x="-818.6400000000001" y="834.38" width="100" height="50" as="geometry" />
        </mxCell>
        <mxCell id="6hXu5btZvPiJTdBJPoFO-35" value="&lt;span style=&quot;font-size: 10px;&quot;&gt;JournalID&lt;/span&gt;" style="ellipse;whiteSpace=wrap;html=1;fontSize=10;strokeWidth=1;" vertex="1" parent="1">
          <mxGeometry x="-804.0500000000001" y="934.38" width="70" height="40" as="geometry" />
        </mxCell>
        <mxCell id="6hXu5btZvPiJTdBJPoFO-37" value="PrintISSN" style="ellipse;whiteSpace=wrap;html=1;fontSize=10;strokeWidth=1;" vertex="1" parent="1">
          <mxGeometry x="-888.64" y="752.5" width="70" height="40" as="geometry" />
        </mxCell>
        <mxCell id="6hXu5btZvPiJTdBJPoFO-38" value="Publisher" style="ellipse;whiteSpace=wrap;html=1;fontSize=10;strokeWidth=1;" vertex="1" parent="1">
          <mxGeometry x="-889.3000000000001" y="934.38" width="70" height="40" as="geometry" />
        </mxCell>
        <mxCell id="6hXu5btZvPiJTdBJPoFO-282" style="edgeStyle=orthogonalEdgeStyle;rounded=0;orthogonalLoop=1;jettySize=auto;html=1;entryX=0.75;entryY=0;entryDx=0;entryDy=0;strokeColor=default;align=center;verticalAlign=middle;fontFamily=Helvetica;fontSize=12;fontColor=default;labelBackgroundColor=default;endArrow=none;endFill=0;" edge="1" parent="1" source="6hXu5btZvPiJTdBJPoFO-39" target="6hXu5btZvPiJTdBJPoFO-4">
          <mxGeometry relative="1" as="geometry">
            <Array as="points">
              <mxPoint y="410" />
              <mxPoint x="-1" y="410" />
            </Array>
          </mxGeometry>
        </mxCell>
        <mxCell id="6hXu5btZvPiJTdBJPoFO-39" value="Name" style="ellipse;whiteSpace=wrap;html=1;fontSize=10;strokeWidth=1;" vertex="1" parent="1">
          <mxGeometry x="25.219999999999885" y="330.5" width="70" height="37.5" as="geometry" />
        </mxCell>
        <mxCell id="6hXu5btZvPiJTdBJPoFO-211" style="edgeStyle=orthogonalEdgeStyle;rounded=0;orthogonalLoop=1;jettySize=auto;html=1;entryX=0;entryY=0.25;entryDx=0;entryDy=0;strokeColor=default;align=center;verticalAlign=middle;fontFamily=Helvetica;fontSize=12;fontColor=default;labelBackgroundColor=default;endArrow=none;endFill=0;" edge="1" parent="1" source="6hXu5btZvPiJTdBJPoFO-40" target="6hXu5btZvPiJTdBJPoFO-5">
          <mxGeometry relative="1" as="geometry" />
        </mxCell>
        <mxCell id="6hXu5btZvPiJTdBJPoFO-40" value="Email" style="ellipse;whiteSpace=wrap;html=1;fontSize=10;strokeWidth=1;" vertex="1" parent="1">
          <mxGeometry x="-492.16" y="714" width="55" height="37.5" as="geometry" />
        </mxCell>
        <mxCell id="6hXu5btZvPiJTdBJPoFO-41" value="Name" style="ellipse;whiteSpace=wrap;html=1;fontSize=10;strokeWidth=1;" vertex="1" parent="1">
          <mxGeometry x="-953.95" y="879.38" width="70" height="37.5" as="geometry" />
        </mxCell>
        <mxCell id="6hXu5btZvPiJTdBJPoFO-42" value="Name" style="ellipse;whiteSpace=wrap;html=1;fontSize=10;strokeWidth=1;" vertex="1" parent="1">
          <mxGeometry x="-337.66" y="797.5" width="60" height="37.5" as="geometry" />
        </mxCell>
        <mxCell id="6hXu5btZvPiJTdBJPoFO-43" value="Name" style="ellipse;whiteSpace=wrap;html=1;fontSize=10;strokeWidth=1;" vertex="1" parent="1">
          <mxGeometry x="61.21999999999995" y="723.12" width="60" height="37.5" as="geometry" />
        </mxCell>
        <mxCell id="6hXu5btZvPiJTdBJPoFO-44" value="Name" style="ellipse;whiteSpace=wrap;html=1;fontSize=10;strokeWidth=1;" vertex="1" parent="1">
          <mxGeometry x="-759.1899999999998" y="327.5" width="57.5" height="37.5" as="geometry" />
        </mxCell>
        <mxCell id="6hXu5btZvPiJTdBJPoFO-222" value="" style="edgeStyle=orthogonalEdgeStyle;rounded=0;orthogonalLoop=1;jettySize=auto;html=1;strokeColor=default;align=center;verticalAlign=middle;fontFamily=Helvetica;fontSize=12;fontColor=default;labelBackgroundColor=default;endArrow=none;endFill=0;" edge="1" parent="1" source="6hXu5btZvPiJTdBJPoFO-45" target="6hXu5btZvPiJTdBJPoFO-12">
          <mxGeometry relative="1" as="geometry" />
        </mxCell>
        <mxCell id="6hXu5btZvPiJTdBJPoFO-45" value="&lt;span style=&quot;font-size: 10px;&quot;&gt;KeywordName&lt;/span&gt;" style="ellipse;whiteSpace=wrap;html=1;fontSize=10;strokeWidth=1;" vertex="1" parent="1">
          <mxGeometry x="-575.69" y="372.25" width="90" height="40" as="geometry" />
        </mxCell>
        <mxCell id="6hXu5btZvPiJTdBJPoFO-46" value="InstitutionID" style="ellipse;whiteSpace=wrap;html=1;fontSize=10;strokeWidth=1;" vertex="1" parent="1">
          <mxGeometry x="-48.78000000000006" y="802.62" width="80" height="40" as="geometry" />
        </mxCell>
        <mxCell id="6hXu5btZvPiJTdBJPoFO-113" value="" style="edgeStyle=orthogonalEdgeStyle;rounded=0;orthogonalLoop=1;jettySize=auto;html=1;strokeColor=default;align=center;verticalAlign=middle;fontFamily=Helvetica;fontSize=12;fontColor=default;labelBackgroundColor=default;endArrow=none;endFill=0;entryX=0.568;entryY=0.069;entryDx=0;entryDy=0;entryPerimeter=0;" edge="1" parent="1" target="6hXu5btZvPiJTdBJPoFO-99">
          <mxGeometry relative="1" as="geometry">
            <mxPoint x="-337.15" y="492.5" as="sourcePoint" />
            <mxPoint x="-337.15" y="552.5" as="targetPoint" />
            <Array as="points">
              <mxPoint x="-337.15999999999997" y="520" />
              <mxPoint x="-337.15999999999997" y="520" />
            </Array>
          </mxGeometry>
        </mxCell>
        <mxCell id="6hXu5btZvPiJTdBJPoFO-114" value="" style="edgeStyle=orthogonalEdgeStyle;rounded=0;orthogonalLoop=1;jettySize=auto;html=1;strokeColor=default;align=center;verticalAlign=middle;fontFamily=Helvetica;fontSize=12;fontColor=default;labelBackgroundColor=default;endArrow=none;endFill=0;entryX=0.435;entryY=0.07;entryDx=0;entryDy=0;entryPerimeter=0;" edge="1" parent="1" target="6hXu5btZvPiJTdBJPoFO-99">
          <mxGeometry relative="1" as="geometry">
            <mxPoint x="-347.15" y="492.5" as="sourcePoint" />
            <mxPoint x="-347.15999999999997" y="554" as="targetPoint" />
            <Array as="points" />
          </mxGeometry>
        </mxCell>
        <mxCell id="6hXu5btZvPiJTdBJPoFO-116" value="M" style="text;html=1;align=center;verticalAlign=middle;resizable=0;points=[];autosize=1;strokeColor=none;fillColor=none;fontFamily=Helvetica;fontSize=10;fontColor=default;labelBackgroundColor=default;" vertex="1" parent="1">
          <mxGeometry x="-371.71999999999997" y="690" width="30" height="30" as="geometry" />
        </mxCell>
        <mxCell id="6hXu5btZvPiJTdBJPoFO-117" value="N" style="text;html=1;align=center;verticalAlign=middle;resizable=0;points=[];autosize=1;strokeColor=none;fillColor=none;fontFamily=Helvetica;fontSize=10;fontColor=default;labelBackgroundColor=default;" vertex="1" parent="1">
          <mxGeometry x="-341.72" y="492.5" width="30" height="30" as="geometry" />
        </mxCell>
        <mxCell id="6hXu5btZvPiJTdBJPoFO-119" value="&lt;font style=&quot;font-size: 8px;&quot;&gt;has&lt;/font&gt;" style="rhombus;whiteSpace=wrap;html=1;strokeColor=default;align=center;verticalAlign=middle;fontFamily=Helvetica;fontSize=8;fontColor=default;labelBackgroundColor=default;fillColor=default;gradientColor=none;" vertex="1" parent="1">
          <mxGeometry x="-407.24999999999994" y="282.75" width="75" height="60" as="geometry" />
        </mxCell>
        <mxCell id="6hXu5btZvPiJTdBJPoFO-123" value="M" style="text;html=1;align=center;verticalAlign=middle;resizable=0;points=[];autosize=1;strokeColor=none;fillColor=none;fontFamily=Helvetica;fontSize=10;fontColor=default;labelBackgroundColor=default;" vertex="1" parent="1">
          <mxGeometry x="-482.69" y="282.75" width="30" height="30" as="geometry" />
        </mxCell>
        <mxCell id="6hXu5btZvPiJTdBJPoFO-149" style="edgeStyle=orthogonalEdgeStyle;rounded=0;orthogonalLoop=1;jettySize=auto;html=1;entryX=0.2;entryY=-0.002;entryDx=0;entryDy=0;strokeColor=default;align=center;verticalAlign=middle;fontFamily=Helvetica;fontSize=12;fontColor=default;labelBackgroundColor=default;endArrow=none;endFill=0;entryPerimeter=0;exitX=0.557;exitY=0.875;exitDx=0;exitDy=0;exitPerimeter=0;" edge="1" parent="1" source="6hXu5btZvPiJTdBJPoFO-230">
          <mxGeometry relative="1" as="geometry">
            <mxPoint x="-762.7799999999997" y="758.6279999999999" as="sourcePoint" />
            <mxPoint x="-762.7799999999999" y="834.7" as="targetPoint" />
            <Array as="points" />
          </mxGeometry>
        </mxCell>
        <mxCell id="6hXu5btZvPiJTdBJPoFO-151" value="N" style="text;html=1;align=center;verticalAlign=middle;resizable=0;points=[];autosize=1;strokeColor=none;fillColor=none;fontFamily=Helvetica;fontSize=10;fontColor=default;labelBackgroundColor=default;" vertex="1" parent="1">
          <mxGeometry x="-764.0499999999998" y="804.38" width="30" height="30" as="geometry" />
        </mxCell>
        <mxCell id="6hXu5btZvPiJTdBJPoFO-152" value="M" style="text;html=1;align=center;verticalAlign=middle;resizable=0;points=[];autosize=1;strokeColor=none;fillColor=none;fontFamily=Helvetica;fontSize=10;fontColor=default;labelBackgroundColor=default;" vertex="1" parent="1">
          <mxGeometry x="-717.6899999999999" y="232" width="30" height="30" as="geometry" />
        </mxCell>
        <mxCell id="6hXu5btZvPiJTdBJPoFO-153" value="" style="edgeStyle=orthogonalEdgeStyle;rounded=0;orthogonalLoop=1;jettySize=auto;html=1;strokeColor=default;align=center;verticalAlign=middle;fontFamily=Helvetica;fontSize=12;fontColor=default;labelBackgroundColor=default;endArrow=none;endFill=0;entryX=0.457;entryY=0;entryDx=0;entryDy=0;entryPerimeter=0;exitX=0.429;exitY=0.932;exitDx=0;exitDy=0;exitPerimeter=0;" edge="1" parent="1" source="6hXu5btZvPiJTdBJPoFO-230" target="6hXu5btZvPiJTdBJPoFO-34">
          <mxGeometry relative="1" as="geometry">
            <mxPoint x="-772.8457142857144" y="758.3194285714284" as="sourcePoint" />
            <mxPoint x="-772.8799999999998" y="835" as="targetPoint" />
            <Array as="points">
              <mxPoint x="-772" y="799" />
              <mxPoint x="-773" y="799" />
            </Array>
          </mxGeometry>
        </mxCell>
        <mxCell id="6hXu5btZvPiJTdBJPoFO-278" style="edgeStyle=orthogonalEdgeStyle;rounded=0;orthogonalLoop=1;jettySize=auto;html=1;entryX=0.001;entryY=0.397;entryDx=0;entryDy=0;strokeColor=default;align=center;verticalAlign=middle;fontFamily=Helvetica;fontSize=12;fontColor=default;labelBackgroundColor=default;endArrow=none;endFill=0;entryPerimeter=0;" edge="1" parent="1" source="6hXu5btZvPiJTdBJPoFO-161" target="6hXu5btZvPiJTdBJPoFO-34">
          <mxGeometry relative="1" as="geometry">
            <mxPoint x="-799.6400000000001" y="853.88" as="targetPoint" />
            <Array as="points">
              <mxPoint x="-918.95" y="854.38" />
            </Array>
          </mxGeometry>
        </mxCell>
        <mxCell id="6hXu5btZvPiJTdBJPoFO-161" value="Frequency" style="ellipse;whiteSpace=wrap;html=1;fontSize=10;strokeWidth=1;" vertex="1" parent="1">
          <mxGeometry x="-953.95" y="800" width="70" height="40" as="geometry" />
        </mxCell>
        <mxCell id="6hXu5btZvPiJTdBJPoFO-169" value="" style="rounded=0;whiteSpace=wrap;html=1;fontSize=14;strokeWidth=1;" vertex="1" parent="1">
          <mxGeometry x="-711.35" y="583.5" width="100" height="50" as="geometry" />
        </mxCell>
        <mxCell id="6hXu5btZvPiJTdBJPoFO-367" style="edgeStyle=orthogonalEdgeStyle;rounded=0;orthogonalLoop=1;jettySize=auto;html=1;entryX=0.5;entryY=0;entryDx=0;entryDy=0;strokeColor=default;align=center;verticalAlign=middle;fontFamily=Helvetica;fontSize=11;fontColor=default;labelBackgroundColor=default;endArrow=none;endFill=0;" edge="1" parent="1" source="6hXu5btZvPiJTdBJPoFO-172" target="6hXu5btZvPiJTdBJPoFO-169">
          <mxGeometry relative="1" as="geometry" />
        </mxCell>
        <mxCell id="6hXu5btZvPiJTdBJPoFO-172" value="PublicationDate" style="ellipse;whiteSpace=wrap;html=1;fontSize=10;strokeWidth=1;" vertex="1" parent="1">
          <mxGeometry x="-701.6899999999999" y="520.25" width="80" height="40" as="geometry" />
        </mxCell>
        <mxCell id="6hXu5btZvPiJTdBJPoFO-177" value="JournalVolume" style="rounded=0;whiteSpace=wrap;html=1;fontSize=12;strokeWidth=1;" vertex="1" parent="1">
          <mxGeometry x="-705.0999999999999" y="590.5" width="88" height="35" as="geometry" />
        </mxCell>
        <mxCell id="6hXu5btZvPiJTdBJPoFO-178" value="" style="rhombus;whiteSpace=wrap;html=1;strokeColor=default;align=center;verticalAlign=middle;fontFamily=Helvetica;fontSize=12;fontColor=default;labelBackgroundColor=default;fillColor=default;gradientColor=none;" vertex="1" parent="1">
          <mxGeometry x="-698.5999999999999" y="709.5" width="75" height="60" as="geometry" />
        </mxCell>
        <mxCell id="6hXu5btZvPiJTdBJPoFO-369" style="edgeStyle=orthogonalEdgeStyle;rounded=0;orthogonalLoop=1;jettySize=auto;html=1;entryX=1;entryY=0.5;entryDx=0;entryDy=0;strokeColor=default;align=center;verticalAlign=middle;fontFamily=Helvetica;fontSize=11;fontColor=default;labelBackgroundColor=default;endArrow=none;endFill=0;" edge="1" parent="1" source="6hXu5btZvPiJTdBJPoFO-180" target="6hXu5btZvPiJTdBJPoFO-34">
          <mxGeometry relative="1" as="geometry">
            <Array as="points">
              <mxPoint x="-661" y="859" />
            </Array>
          </mxGeometry>
        </mxCell>
        <mxCell id="6hXu5btZvPiJTdBJPoFO-180" value="&lt;font style=&quot;font-size: 8px;&quot;&gt;has&lt;br style=&quot;font-size: 8px;&quot;&gt;&lt;/font&gt;" style="rhombus;whiteSpace=wrap;html=1;strokeColor=default;align=center;verticalAlign=middle;fontFamily=Helvetica;fontSize=8;fontColor=default;labelBackgroundColor=default;fillColor=default;gradientColor=none;" vertex="1" parent="1">
          <mxGeometry x="-691.0999999999999" y="714.5" width="60" height="50" as="geometry" />
        </mxCell>
        <mxCell id="6hXu5btZvPiJTdBJPoFO-182" value="1" style="text;html=1;align=center;verticalAlign=middle;resizable=0;points=[];autosize=1;strokeColor=none;fillColor=none;fontFamily=Helvetica;fontSize=10;fontColor=default;labelBackgroundColor=default;" vertex="1" parent="1">
          <mxGeometry x="-718.64" y="832.5" width="30" height="30" as="geometry" />
        </mxCell>
        <mxCell id="6hXu5btZvPiJTdBJPoFO-185" style="edgeStyle=orthogonalEdgeStyle;rounded=0;orthogonalLoop=1;jettySize=auto;html=1;entryX=0.576;entryY=0.079;entryDx=0;entryDy=0;entryPerimeter=0;strokeColor=default;align=center;verticalAlign=middle;fontFamily=Helvetica;fontSize=12;fontColor=default;labelBackgroundColor=default;endArrow=none;endFill=0;exitX=0.563;exitY=1.004;exitDx=0;exitDy=0;exitPerimeter=0;" edge="1" parent="1" source="6hXu5btZvPiJTdBJPoFO-169" target="6hXu5btZvPiJTdBJPoFO-178">
          <mxGeometry relative="1" as="geometry">
            <mxPoint x="-654.8500000000001" y="635.5000000000002" as="sourcePoint" />
            <mxPoint x="-655.3" y="687.96" as="targetPoint" />
            <Array as="points">
              <mxPoint x="-654.8499999999999" y="660" />
              <mxPoint x="-655.8499999999999" y="660" />
            </Array>
          </mxGeometry>
        </mxCell>
        <mxCell id="6hXu5btZvPiJTdBJPoFO-186" style="edgeStyle=orthogonalEdgeStyle;rounded=0;orthogonalLoop=1;jettySize=auto;html=1;entryX=0.43;entryY=0.064;entryDx=0;entryDy=0;entryPerimeter=0;strokeColor=default;align=center;verticalAlign=middle;fontFamily=Helvetica;fontSize=12;fontColor=default;labelBackgroundColor=default;endArrow=none;endFill=0;exitX=0.448;exitY=1.006;exitDx=0;exitDy=0;exitPerimeter=0;" edge="1" parent="1" source="6hXu5btZvPiJTdBJPoFO-169" target="6hXu5btZvPiJTdBJPoFO-178">
          <mxGeometry relative="1" as="geometry">
            <mxPoint x="-666.53" y="635.5" as="sourcePoint" />
            <mxPoint x="-666.53" y="687.5" as="targetPoint" />
            <Array as="points" />
          </mxGeometry>
        </mxCell>
        <mxCell id="6hXu5btZvPiJTdBJPoFO-188" value="N" style="text;html=1;align=center;verticalAlign=middle;resizable=0;points=[];autosize=1;strokeColor=none;fillColor=none;fontFamily=Helvetica;fontSize=10;fontColor=default;labelBackgroundColor=default;" vertex="1" parent="1">
          <mxGeometry x="-653.5999999999999" y="633.5" width="30" height="30" as="geometry" />
        </mxCell>
        <mxCell id="6hXu5btZvPiJTdBJPoFO-189" value="" style="group" vertex="1" connectable="0" parent="1">
          <mxGeometry x="-610.69" y="663.5" width="70" height="37.5" as="geometry" />
        </mxCell>
        <mxCell id="6hXu5btZvPiJTdBJPoFO-173" value="Volume" style="ellipse;whiteSpace=wrap;html=1;fontSize=10;strokeWidth=1;" vertex="1" parent="6hXu5btZvPiJTdBJPoFO-189">
          <mxGeometry width="70" height="37.5" as="geometry" />
        </mxCell>
        <mxCell id="6hXu5btZvPiJTdBJPoFO-175" value="" style="endArrow=none;dashed=1;html=1;rounded=0;strokeColor=default;align=center;verticalAlign=middle;fontFamily=Helvetica;fontSize=12;fontColor=default;labelBackgroundColor=default;edgeStyle=orthogonalEdgeStyle;" edge="1" parent="6hXu5btZvPiJTdBJPoFO-189">
          <mxGeometry width="50" height="50" relative="1" as="geometry">
            <mxPoint x="15.000000000000057" y="24.50999999999999" as="sourcePoint" />
            <mxPoint x="55.00000000000006" y="24.50999999999999" as="targetPoint" />
            <Array as="points">
              <mxPoint x="15.000000000000057" y="24.50999999999999" />
              <mxPoint x="54.00000000000006" y="24.50999999999999" />
            </Array>
          </mxGeometry>
        </mxCell>
        <mxCell id="6hXu5btZvPiJTdBJPoFO-191" style="edgeStyle=orthogonalEdgeStyle;rounded=0;orthogonalLoop=1;jettySize=auto;html=1;entryX=0.327;entryY=1.009;entryDx=0;entryDy=0;strokeColor=default;align=center;verticalAlign=middle;fontFamily=Helvetica;fontSize=12;fontColor=default;labelBackgroundColor=default;endArrow=none;endFill=0;exitX=0.942;exitY=0.56;exitDx=0;exitDy=0;exitPerimeter=0;entryPerimeter=0;" edge="1" parent="1" source="6hXu5btZvPiJTdBJPoFO-193" target="6hXu5btZvPiJTdBJPoFO-1">
          <mxGeometry relative="1" as="geometry">
            <mxPoint x="-470.5100000000001" y="612.6600000000001" as="sourcePoint" />
            <mxPoint x="-386.65999999999985" y="503.44999999999993" as="targetPoint" />
            <Array as="points">
              <mxPoint x="-480" y="612" />
              <mxPoint x="-387" y="613" />
            </Array>
          </mxGeometry>
        </mxCell>
        <mxCell id="6hXu5btZvPiJTdBJPoFO-215" style="edgeStyle=orthogonalEdgeStyle;rounded=0;orthogonalLoop=1;jettySize=auto;html=1;entryX=1;entryY=0.5;entryDx=0;entryDy=0;strokeColor=default;align=center;verticalAlign=middle;fontFamily=Helvetica;fontSize=12;fontColor=default;labelBackgroundColor=default;endArrow=none;endFill=0;" edge="1" parent="1" source="6hXu5btZvPiJTdBJPoFO-193" target="6hXu5btZvPiJTdBJPoFO-169">
          <mxGeometry relative="1" as="geometry" />
        </mxCell>
        <mxCell id="6hXu5btZvPiJTdBJPoFO-193" value="&lt;font style=&quot;font-size: 8px;&quot;&gt;has&lt;/font&gt;" style="rhombus;whiteSpace=wrap;html=1;strokeColor=default;align=center;verticalAlign=middle;fontFamily=Helvetica;fontSize=8;fontColor=default;labelBackgroundColor=default;fillColor=default;gradientColor=none;" vertex="1" parent="1">
          <mxGeometry x="-549.66" y="578.5" width="75" height="60" as="geometry" />
        </mxCell>
        <mxCell id="6hXu5btZvPiJTdBJPoFO-196" value="" style="edgeStyle=orthogonalEdgeStyle;rounded=0;orthogonalLoop=1;jettySize=auto;html=1;strokeColor=default;align=center;verticalAlign=middle;fontFamily=Helvetica;fontSize=12;fontColor=default;labelBackgroundColor=default;endArrow=none;endFill=0;exitX=0.933;exitY=0.434;exitDx=0;exitDy=0;exitPerimeter=0;entryX=0.227;entryY=1.009;entryDx=0;entryDy=0;entryPerimeter=0;" edge="1" parent="1" source="6hXu5btZvPiJTdBJPoFO-193" target="6hXu5btZvPiJTdBJPoFO-1">
          <mxGeometry relative="1" as="geometry">
            <mxPoint x="-467.43500000000006" y="603.48" as="sourcePoint" />
            <mxPoint x="-396.75999999999976" y="503.6" as="targetPoint" />
            <Array as="points">
              <mxPoint x="-397" y="605" />
            </Array>
          </mxGeometry>
        </mxCell>
        <mxCell id="6hXu5btZvPiJTdBJPoFO-197" value="N" style="text;html=1;align=center;verticalAlign=middle;resizable=0;points=[];autosize=1;strokeColor=none;fillColor=none;fontFamily=Helvetica;fontSize=10;fontColor=default;labelBackgroundColor=default;" vertex="1" parent="1">
          <mxGeometry x="-388.65999999999997" y="492.5" width="30" height="30" as="geometry" />
        </mxCell>
        <mxCell id="6hXu5btZvPiJTdBJPoFO-198" value="1" style="text;html=1;align=center;verticalAlign=middle;resizable=0;points=[];autosize=1;strokeColor=none;fillColor=none;fontFamily=Helvetica;fontSize=10;fontColor=default;labelBackgroundColor=default;" vertex="1" parent="1">
          <mxGeometry x="-610.6899999999999" y="581" width="30" height="30" as="geometry" />
        </mxCell>
        <mxCell id="6hXu5btZvPiJTdBJPoFO-201" style="edgeStyle=orthogonalEdgeStyle;rounded=0;orthogonalLoop=1;jettySize=auto;html=1;strokeColor=default;align=center;verticalAlign=middle;fontFamily=Helvetica;fontSize=12;fontColor=default;labelBackgroundColor=default;endArrow=none;endFill=0;" edge="1" parent="1" source="6hXu5btZvPiJTdBJPoFO-173">
          <mxGeometry relative="1" as="geometry">
            <mxPoint x="-610" y="621" as="targetPoint" />
            <Array as="points">
              <mxPoint x="-576" y="621" />
            </Array>
          </mxGeometry>
        </mxCell>
        <mxCell id="6hXu5btZvPiJTdBJPoFO-210" style="edgeStyle=orthogonalEdgeStyle;rounded=0;orthogonalLoop=1;jettySize=auto;html=1;entryX=0.841;entryY=1.009;entryDx=0;entryDy=0;entryPerimeter=0;strokeColor=default;align=center;verticalAlign=middle;fontFamily=Helvetica;fontSize=12;fontColor=default;labelBackgroundColor=default;endArrow=none;endFill=0;" edge="1" parent="1" source="6hXu5btZvPiJTdBJPoFO-42" target="6hXu5btZvPiJTdBJPoFO-5">
          <mxGeometry relative="1" as="geometry" />
        </mxCell>
        <mxCell id="6hXu5btZvPiJTdBJPoFO-231" style="edgeStyle=orthogonalEdgeStyle;rounded=0;orthogonalLoop=1;jettySize=auto;html=1;entryX=0.5;entryY=1;entryDx=0;entryDy=0;strokeColor=default;align=center;verticalAlign=middle;fontFamily=Helvetica;fontSize=12;fontColor=default;labelBackgroundColor=default;endArrow=none;endFill=0;" edge="1" parent="1" source="6hXu5btZvPiJTdBJPoFO-230" target="6hXu5btZvPiJTdBJPoFO-2">
          <mxGeometry relative="1" as="geometry" />
        </mxCell>
        <mxCell id="6hXu5btZvPiJTdBJPoFO-230" value="&lt;font style=&quot;font-size: 8px;&quot;&gt;belongs to&lt;/font&gt;" style="rhombus;whiteSpace=wrap;html=1;strokeColor=default;align=center;verticalAlign=middle;fontFamily=Helvetica;fontSize=8;fontColor=default;labelBackgroundColor=default;fillColor=default;gradientColor=none;" vertex="1" parent="1">
          <mxGeometry x="-804.5600000000001" y="507.5" width="75" height="60" as="geometry" />
        </mxCell>
        <mxCell id="6hXu5btZvPiJTdBJPoFO-233" value="favorites" style="rhombus;whiteSpace=wrap;html=1;strokeColor=default;align=center;verticalAlign=middle;fontFamily=Helvetica;fontSize=8;fontColor=default;labelBackgroundColor=default;fillColor=default;gradientColor=none;" vertex="1" parent="1">
          <mxGeometry x="-229.99999999999997" y="330.5" width="75" height="60" as="geometry" />
        </mxCell>
        <mxCell id="6hXu5btZvPiJTdBJPoFO-236" style="edgeStyle=orthogonalEdgeStyle;rounded=0;orthogonalLoop=1;jettySize=auto;html=1;entryX=1;entryY=0.5;entryDx=0;entryDy=0;strokeColor=default;align=center;verticalAlign=middle;fontFamily=Helvetica;fontSize=12;fontColor=default;labelBackgroundColor=default;endArrow=none;endFill=0;" edge="1" parent="1" source="6hXu5btZvPiJTdBJPoFO-234" target="6hXu5btZvPiJTdBJPoFO-1">
          <mxGeometry relative="1" as="geometry" />
        </mxCell>
        <mxCell id="6hXu5btZvPiJTdBJPoFO-234" value="read by" style="rhombus;whiteSpace=wrap;html=1;strokeColor=default;align=center;verticalAlign=middle;fontFamily=Helvetica;fontSize=8;fontColor=default;labelBackgroundColor=default;fillColor=default;gradientColor=none;" vertex="1" parent="1">
          <mxGeometry x="-229.99999999999997" y="437" width="75" height="60" as="geometry" />
        </mxCell>
        <mxCell id="6hXu5btZvPiJTdBJPoFO-244" style="edgeStyle=orthogonalEdgeStyle;rounded=0;orthogonalLoop=1;jettySize=auto;html=1;entryX=0.969;entryY=0.437;entryDx=0;entryDy=0;entryPerimeter=0;strokeColor=default;align=center;verticalAlign=middle;fontFamily=Helvetica;fontSize=12;fontColor=default;labelBackgroundColor=default;endArrow=none;endFill=0;" edge="1" parent="1">
          <mxGeometry relative="1" as="geometry">
            <mxPoint x="61.22" y="742.12" as="sourcePoint" />
            <mxPoint x="24.23999999999998" y="741.8499999999999" as="targetPoint" />
          </mxGeometry>
        </mxCell>
        <mxCell id="6hXu5btZvPiJTdBJPoFO-251" style="edgeStyle=orthogonalEdgeStyle;rounded=0;orthogonalLoop=1;jettySize=auto;html=1;entryX=0.5;entryY=1;entryDx=0;entryDy=0;strokeColor=default;align=center;verticalAlign=middle;fontFamily=Helvetica;fontSize=12;fontColor=default;labelBackgroundColor=default;endArrow=none;endFill=0;" edge="1" parent="1" source="6hXu5btZvPiJTdBJPoFO-246" target="6hXu5btZvPiJTdBJPoFO-4">
          <mxGeometry relative="1" as="geometry" />
        </mxCell>
        <mxCell id="6hXu5btZvPiJTdBJPoFO-246" value="&lt;font style=&quot;font-size: 8px;&quot;&gt;affiliated to&lt;br style=&quot;font-size: 8px;&quot;&gt;&lt;/font&gt;" style="rhombus;whiteSpace=wrap;html=1;strokeColor=default;align=center;verticalAlign=middle;fontFamily=Helvetica;fontSize=8;fontColor=default;labelBackgroundColor=default;fillColor=default;gradientColor=none;" vertex="1" parent="1">
          <mxGeometry x="-63.15999999999997" y="581" width="75" height="60" as="geometry" />
        </mxCell>
        <mxCell id="6hXu5btZvPiJTdBJPoFO-248" style="edgeStyle=orthogonalEdgeStyle;rounded=0;orthogonalLoop=1;jettySize=auto;html=1;entryX=0;entryY=0.5;entryDx=0;entryDy=0;strokeColor=default;align=center;verticalAlign=middle;fontFamily=Helvetica;fontSize=12;fontColor=default;labelBackgroundColor=default;endArrow=none;endFill=0;" edge="1" parent="1" source="6hXu5btZvPiJTdBJPoFO-247" target="6hXu5btZvPiJTdBJPoFO-3">
          <mxGeometry relative="1" as="geometry" />
        </mxCell>
        <mxCell id="6hXu5btZvPiJTdBJPoFO-249" style="edgeStyle=orthogonalEdgeStyle;rounded=0;orthogonalLoop=1;jettySize=auto;html=1;entryX=1;entryY=0.5;entryDx=0;entryDy=0;strokeColor=default;align=center;verticalAlign=middle;fontFamily=Helvetica;fontSize=12;fontColor=default;labelBackgroundColor=default;endArrow=none;endFill=0;" edge="1" parent="1" source="6hXu5btZvPiJTdBJPoFO-247" target="6hXu5btZvPiJTdBJPoFO-5">
          <mxGeometry relative="1" as="geometry" />
        </mxCell>
        <mxCell id="6hXu5btZvPiJTdBJPoFO-247" value="&lt;font style=&quot;font-size: 8px;&quot;&gt;affiliated to&lt;br style=&quot;font-size: 8px;&quot;&gt;&lt;/font&gt;" style="rhombus;whiteSpace=wrap;html=1;strokeColor=default;align=center;verticalAlign=middle;fontFamily=Helvetica;fontSize=8;fontColor=default;labelBackgroundColor=default;fillColor=default;gradientColor=none;" vertex="1" parent="1">
          <mxGeometry x="-229.99999999999997" y="715.5" width="75" height="60" as="geometry" />
        </mxCell>
        <mxCell id="6hXu5btZvPiJTdBJPoFO-255" style="edgeStyle=orthogonalEdgeStyle;rounded=0;orthogonalLoop=1;jettySize=auto;html=1;entryX=1;entryY=0.5;entryDx=0;entryDy=0;strokeColor=default;align=center;verticalAlign=middle;fontFamily=Helvetica;fontSize=12;fontColor=default;labelBackgroundColor=default;endArrow=none;endFill=0;" edge="1" parent="1" source="6hXu5btZvPiJTdBJPoFO-254" target="6hXu5btZvPiJTdBJPoFO-2">
          <mxGeometry relative="1" as="geometry" />
        </mxCell>
        <mxCell id="6hXu5btZvPiJTdBJPoFO-254" value="&lt;font style=&quot;font-size: 8px;&quot;&gt;interested in&lt;br style=&quot;font-size: 8px;&quot;&gt;&lt;/font&gt;" style="rhombus;whiteSpace=wrap;html=1;strokeColor=default;align=center;verticalAlign=middle;fontFamily=Helvetica;fontSize=8;fontColor=default;labelBackgroundColor=default;fillColor=default;gradientColor=none;" vertex="1" parent="1">
          <mxGeometry x="-63.15999999999997" y="232" width="75" height="60" as="geometry" />
        </mxCell>
        <mxCell id="6hXu5btZvPiJTdBJPoFO-261" value="M" style="text;html=1;align=center;verticalAlign=middle;resizable=0;points=[];autosize=1;strokeColor=none;fillColor=none;fontFamily=Helvetica;fontSize=10;fontColor=default;labelBackgroundColor=default;" vertex="1" parent="1">
          <mxGeometry x="-797.7799999999999" y="287.75" width="30" height="30" as="geometry" />
        </mxCell>
        <mxCell id="6hXu5btZvPiJTdBJPoFO-262" value="N" style="text;html=1;align=center;verticalAlign=middle;resizable=0;points=[];autosize=1;strokeColor=none;fillColor=none;fontFamily=Helvetica;fontSize=10;fontColor=default;labelBackgroundColor=default;" vertex="1" parent="1">
          <mxGeometry x="-53.779999999999916" y="412.5" width="30" height="30" as="geometry" />
        </mxCell>
        <mxCell id="6hXu5btZvPiJTdBJPoFO-263" value="1" style="text;html=1;align=center;verticalAlign=middle;resizable=0;points=[];autosize=1;strokeColor=none;fillColor=none;fontFamily=Helvetica;fontSize=10;fontColor=default;labelBackgroundColor=default;" vertex="1" parent="1">
          <mxGeometry x="-23.779999999999916" y="690" width="30" height="30" as="geometry" />
        </mxCell>
        <mxCell id="6hXu5btZvPiJTdBJPoFO-264" value="N" style="text;html=1;align=center;verticalAlign=middle;resizable=0;points=[];autosize=1;strokeColor=none;fillColor=none;fontFamily=Helvetica;fontSize=10;fontColor=default;labelBackgroundColor=default;" vertex="1" parent="1">
          <mxGeometry x="-53.779999999999916" y="492.5" width="30" height="30" as="geometry" />
        </mxCell>
        <mxCell id="6hXu5btZvPiJTdBJPoFO-265" value="1" style="text;html=1;align=center;verticalAlign=middle;resizable=0;points=[];autosize=1;strokeColor=none;fillColor=none;fontFamily=Helvetica;fontSize=10;fontColor=default;labelBackgroundColor=default;" vertex="1" parent="1">
          <mxGeometry x="-105.65999999999991" y="715.5" width="30" height="30" as="geometry" />
        </mxCell>
        <mxCell id="6hXu5btZvPiJTdBJPoFO-266" value="N" style="text;html=1;align=center;verticalAlign=middle;resizable=0;points=[];autosize=1;strokeColor=none;fillColor=none;fontFamily=Helvetica;fontSize=10;fontColor=default;labelBackgroundColor=default;" vertex="1" parent="1">
          <mxGeometry x="-292.1599999999999" y="715.5" width="30" height="30" as="geometry" />
        </mxCell>
        <mxCell id="6hXu5btZvPiJTdBJPoFO-267" value="N" style="text;html=1;align=center;verticalAlign=middle;resizable=0;points=[];autosize=1;strokeColor=none;fillColor=none;fontFamily=Helvetica;fontSize=10;fontColor=default;labelBackgroundColor=default;" vertex="1" parent="1">
          <mxGeometry x="-324.65999999999997" y="422.5" width="30" height="30" as="geometry" />
        </mxCell>
        <mxCell id="6hXu5btZvPiJTdBJPoFO-271" value="N" style="text;html=1;align=center;verticalAlign=middle;resizable=0;points=[];autosize=1;strokeColor=none;fillColor=none;fontFamily=Helvetica;fontSize=10;fontColor=default;labelBackgroundColor=default;" vertex="1" parent="1">
          <mxGeometry x="-324.65999999999997" y="445" width="30" height="30" as="geometry" />
        </mxCell>
        <mxCell id="6hXu5btZvPiJTdBJPoFO-272" value="1" style="text;html=1;align=center;verticalAlign=middle;resizable=0;points=[];autosize=1;strokeColor=none;fillColor=none;fontFamily=Helvetica;fontSize=10;fontColor=default;labelBackgroundColor=default;" vertex="1" parent="1">
          <mxGeometry x="-324.65999999999997" y="478" width="30" height="30" as="geometry" />
        </mxCell>
        <mxCell id="6hXu5btZvPiJTdBJPoFO-274" value="M" style="text;html=1;align=center;verticalAlign=middle;resizable=0;points=[];autosize=1;strokeColor=none;fillColor=none;fontFamily=Helvetica;fontSize=10;fontColor=default;labelBackgroundColor=default;" vertex="1" parent="1">
          <mxGeometry x="-105.65999999999997" y="422.5" width="30" height="30" as="geometry" />
        </mxCell>
        <mxCell id="6hXu5btZvPiJTdBJPoFO-275" value="M" style="text;html=1;align=center;verticalAlign=middle;resizable=0;points=[];autosize=1;strokeColor=none;fillColor=none;fontFamily=Helvetica;fontSize=10;fontColor=default;labelBackgroundColor=default;" vertex="1" parent="1">
          <mxGeometry x="-105.65999999999997" y="445" width="30" height="30" as="geometry" />
        </mxCell>
        <mxCell id="6hXu5btZvPiJTdBJPoFO-276" value="1" style="text;html=1;align=center;verticalAlign=middle;resizable=0;points=[];autosize=1;strokeColor=none;fillColor=none;fontFamily=Helvetica;fontSize=10;fontColor=default;labelBackgroundColor=default;" vertex="1" parent="1">
          <mxGeometry x="-105.65999999999997" y="478" width="30" height="30" as="geometry" />
        </mxCell>
        <mxCell id="6hXu5btZvPiJTdBJPoFO-281" style="edgeStyle=orthogonalEdgeStyle;rounded=0;orthogonalLoop=1;jettySize=auto;html=1;strokeColor=default;align=center;verticalAlign=middle;fontFamily=Helvetica;fontSize=12;fontColor=default;labelBackgroundColor=default;endArrow=none;endFill=0;" edge="1" parent="1" source="6hXu5btZvPiJTdBJPoFO-277">
          <mxGeometry relative="1" as="geometry">
            <mxPoint x="170" y="480" as="targetPoint" />
            <Array as="points">
              <mxPoint x="171" y="872" />
              <mxPoint x="171" y="480" />
            </Array>
          </mxGeometry>
        </mxCell>
        <mxCell id="6hXu5btZvPiJTdBJPoFO-368" style="edgeStyle=orthogonalEdgeStyle;rounded=0;orthogonalLoop=1;jettySize=auto;html=1;entryX=1;entryY=0.75;entryDx=0;entryDy=0;strokeColor=default;align=center;verticalAlign=middle;fontFamily=Helvetica;fontSize=11;fontColor=default;labelBackgroundColor=default;endArrow=none;endFill=0;" edge="1" parent="1" source="6hXu5btZvPiJTdBJPoFO-277" target="6hXu5btZvPiJTdBJPoFO-34">
          <mxGeometry relative="1" as="geometry" />
        </mxCell>
        <mxCell id="6hXu5btZvPiJTdBJPoFO-277" value="favorites" style="rhombus;whiteSpace=wrap;html=1;strokeColor=default;align=center;verticalAlign=middle;fontFamily=Helvetica;fontSize=8;fontColor=default;labelBackgroundColor=default;fillColor=default;gradientColor=none;" vertex="1" parent="1">
          <mxGeometry x="-229.99999999999997" y="842" width="75" height="60" as="geometry" />
        </mxCell>
        <mxCell id="6hXu5btZvPiJTdBJPoFO-285" value="N" style="text;html=1;align=center;verticalAlign=middle;resizable=0;points=[];autosize=1;strokeColor=none;fillColor=none;fontFamily=Helvetica;fontSize=10;fontColor=default;labelBackgroundColor=default;" vertex="1" parent="1">
          <mxGeometry x="25.22000000000014" y="480.25" width="30" height="30" as="geometry" />
        </mxCell>
        <mxCell id="6hXu5btZvPiJTdBJPoFO-286" value="M" style="text;html=1;align=center;verticalAlign=middle;resizable=0;points=[];autosize=1;strokeColor=none;fillColor=none;fontFamily=Helvetica;fontSize=10;fontColor=default;labelBackgroundColor=default;" vertex="1" parent="1">
          <mxGeometry x="-713.88" y="872" width="30" height="30" as="geometry" />
        </mxCell>
        <mxCell id="6hXu5btZvPiJTdBJPoFO-296" style="edgeStyle=orthogonalEdgeStyle;rounded=0;orthogonalLoop=1;jettySize=auto;html=1;entryX=0.054;entryY=1.01;entryDx=0;entryDy=0;entryPerimeter=0;strokeColor=default;align=center;verticalAlign=middle;fontFamily=Helvetica;fontSize=11;fontColor=default;labelBackgroundColor=default;endArrow=none;endFill=0;" edge="1" parent="1" source="6hXu5btZvPiJTdBJPoFO-8" target="6hXu5btZvPiJTdBJPoFO-1">
          <mxGeometry relative="1" as="geometry">
            <mxPoint x="-414.25999999999954" y="506.1" as="targetPoint" />
          </mxGeometry>
        </mxCell>
        <mxCell id="6hXu5btZvPiJTdBJPoFO-297" style="edgeStyle=orthogonalEdgeStyle;rounded=0;orthogonalLoop=1;jettySize=auto;html=1;strokeColor=default;align=center;verticalAlign=middle;fontFamily=Helvetica;fontSize=11;fontColor=default;labelBackgroundColor=default;endArrow=none;endFill=0;exitX=0.995;exitY=0.498;exitDx=0;exitDy=0;exitPerimeter=0;" edge="1" parent="1" source="6hXu5btZvPiJTdBJPoFO-7">
          <mxGeometry relative="1" as="geometry">
            <mxPoint x="-417.66000000000577" y="561.2499999999999" as="sourcePoint" />
            <mxPoint x="-405" y="493" as="targetPoint" />
            <Array as="points">
              <mxPoint x="-405" y="571" />
            </Array>
          </mxGeometry>
        </mxCell>
        <mxCell id="6hXu5btZvPiJTdBJPoFO-354" style="edgeStyle=orthogonalEdgeStyle;rounded=0;orthogonalLoop=1;jettySize=auto;html=1;entryX=0;entryY=0.25;entryDx=0;entryDy=0;strokeColor=default;align=center;verticalAlign=middle;fontFamily=Helvetica;fontSize=11;fontColor=default;labelBackgroundColor=default;endArrow=none;endFill=0;" edge="1" parent="1" source="6hXu5btZvPiJTdBJPoFO-301" target="6hXu5btZvPiJTdBJPoFO-1">
          <mxGeometry relative="1" as="geometry" />
        </mxCell>
        <mxCell id="6hXu5btZvPiJTdBJPoFO-301" value="cited by" style="rhombus;whiteSpace=wrap;html=1;strokeColor=default;align=center;verticalAlign=middle;fontFamily=Helvetica;fontSize=8;fontColor=default;labelBackgroundColor=default;fillColor=default;gradientColor=none;" vertex="1" parent="1">
          <mxGeometry x="-471.65999999999997" y="359" width="52.65" height="41" as="geometry" />
        </mxCell>
        <mxCell id="6hXu5btZvPiJTdBJPoFO-305" value="N" style="text;html=1;align=center;verticalAlign=middle;resizable=0;points=[];autosize=1;strokeColor=none;fillColor=none;fontFamily=Helvetica;fontSize=10;fontColor=default;labelBackgroundColor=default;" vertex="1" parent="1">
          <mxGeometry x="-446.66" y="429" width="30" height="30" as="geometry" />
        </mxCell>
        <mxCell id="6hXu5btZvPiJTdBJPoFO-306" value="M" style="text;html=1;align=center;verticalAlign=middle;resizable=0;points=[];autosize=1;strokeColor=none;fillColor=none;fontFamily=Helvetica;fontSize=10;fontColor=default;labelBackgroundColor=default;" vertex="1" parent="1">
          <mxGeometry x="-416.6600000000001" y="412.5" width="30" height="30" as="geometry" />
        </mxCell>
        <mxCell id="6hXu5btZvPiJTdBJPoFO-307" value="cited" style="text;html=1;align=center;verticalAlign=middle;resizable=0;points=[];autosize=1;strokeColor=none;fillColor=none;fontFamily=Helvetica;fontSize=8;fontColor=default;labelBackgroundColor=default;" vertex="1" parent="1">
          <mxGeometry x="-482" y="392.5" width="40" height="20" as="geometry" />
        </mxCell>
        <mxCell id="6hXu5btZvPiJTdBJPoFO-310" value="citing" style="text;html=1;align=center;verticalAlign=middle;resizable=0;points=[];autosize=1;strokeColor=none;fillColor=none;fontFamily=Helvetica;fontSize=8;fontColor=default;labelBackgroundColor=default;" vertex="1" parent="1">
          <mxGeometry x="-428.65999999999997" y="362.5" width="40" height="20" as="geometry" />
        </mxCell>
        <mxCell id="6hXu5btZvPiJTdBJPoFO-321" style="edgeStyle=orthogonalEdgeStyle;rounded=0;orthogonalLoop=1;jettySize=auto;html=1;strokeColor=default;align=center;verticalAlign=middle;fontFamily=Helvetica;fontSize=11;fontColor=default;labelBackgroundColor=default;endArrow=none;endFill=0;" edge="1" parent="1">
          <mxGeometry relative="1" as="geometry">
            <mxPoint x="-234" y="616" as="sourcePoint" />
            <mxPoint x="-264" y="556" as="targetPoint" />
            <Array as="points">
              <mxPoint x="-264" y="616" />
              <mxPoint x="-264" y="555" />
            </Array>
          </mxGeometry>
        </mxCell>
        <mxCell id="6hXu5btZvPiJTdBJPoFO-311" value="" style="rounded=0;whiteSpace=wrap;html=1;fontSize=14;strokeWidth=1;" vertex="1" parent="1">
          <mxGeometry x="-239.99999999999991" y="601" width="100" height="50" as="geometry" />
        </mxCell>
        <mxCell id="6hXu5btZvPiJTdBJPoFO-322" style="edgeStyle=orthogonalEdgeStyle;rounded=0;orthogonalLoop=1;jettySize=auto;html=1;strokeColor=default;align=center;verticalAlign=middle;fontFamily=Helvetica;fontSize=11;fontColor=default;labelBackgroundColor=default;endArrow=none;endFill=0;exitX=0.5;exitY=0;exitDx=0;exitDy=0;" edge="1" parent="1" source="6hXu5btZvPiJTdBJPoFO-336" target="6hXu5btZvPiJTdBJPoFO-1">
          <mxGeometry relative="1" as="geometry">
            <Array as="points">
              <mxPoint x="-269" y="480" />
            </Array>
          </mxGeometry>
        </mxCell>
        <mxCell id="6hXu5btZvPiJTdBJPoFO-316" value="related to" style="rhombus;whiteSpace=wrap;html=1;strokeColor=default;align=center;verticalAlign=middle;fontFamily=Helvetica;fontSize=8;fontColor=default;labelBackgroundColor=default;fillColor=default;gradientColor=none;" vertex="1" parent="1">
          <mxGeometry x="-295.15000000000003" y="513" width="52.65" height="41" as="geometry" />
        </mxCell>
        <mxCell id="6hXu5btZvPiJTdBJPoFO-323" style="edgeStyle=orthogonalEdgeStyle;rounded=0;orthogonalLoop=1;jettySize=auto;html=1;entryX=0;entryY=0.75;entryDx=0;entryDy=0;strokeColor=default;align=center;verticalAlign=middle;fontFamily=Helvetica;fontSize=11;fontColor=default;labelBackgroundColor=default;endArrow=none;endFill=0;exitX=0.5;exitY=0;exitDx=0;exitDy=0;" edge="1" parent="1" source="6hXu5btZvPiJTdBJPoFO-337" target="6hXu5btZvPiJTdBJPoFO-4">
          <mxGeometry relative="1" as="geometry">
            <Array as="points">
              <mxPoint x="-111" y="480" />
            </Array>
          </mxGeometry>
        </mxCell>
        <mxCell id="6hXu5btZvPiJTdBJPoFO-339" style="edgeStyle=orthogonalEdgeStyle;rounded=0;orthogonalLoop=1;jettySize=auto;html=1;strokeColor=default;align=center;verticalAlign=middle;fontFamily=Helvetica;fontSize=11;fontColor=default;labelBackgroundColor=default;endArrow=none;endFill=0;" edge="1" parent="1">
          <mxGeometry relative="1" as="geometry">
            <mxPoint x="-110" y="560" as="targetPoint" />
            <mxPoint x="-110" y="560" as="sourcePoint" />
          </mxGeometry>
        </mxCell>
        <mxCell id="6hXu5btZvPiJTdBJPoFO-318" value="makes" style="rhombus;whiteSpace=wrap;html=1;strokeColor=default;align=center;verticalAlign=middle;fontFamily=Helvetica;fontSize=8;fontColor=default;labelBackgroundColor=default;fillColor=default;gradientColor=none;" vertex="1" parent="1">
          <mxGeometry x="-137.00000000000003" y="510.25" width="52.65" height="41" as="geometry" />
        </mxCell>
        <mxCell id="6hXu5btZvPiJTdBJPoFO-324" value="N" style="text;html=1;align=center;verticalAlign=middle;resizable=0;points=[];autosize=1;strokeColor=none;fillColor=none;fontFamily=Helvetica;fontSize=10;fontColor=default;labelBackgroundColor=default;" vertex="1" parent="1">
          <mxGeometry x="-267.08" y="590.5" width="30" height="30" as="geometry" />
        </mxCell>
        <mxCell id="6hXu5btZvPiJTdBJPoFO-325" value="N" style="text;html=1;align=center;verticalAlign=middle;resizable=0;points=[];autosize=1;strokeColor=none;fillColor=none;fontFamily=Helvetica;fontSize=10;fontColor=default;labelBackgroundColor=default;" vertex="1" parent="1">
          <mxGeometry x="-146" y="591" width="30" height="30" as="geometry" />
        </mxCell>
        <mxCell id="6hXu5btZvPiJTdBJPoFO-330" style="edgeStyle=orthogonalEdgeStyle;rounded=0;orthogonalLoop=1;jettySize=auto;html=1;entryX=0;entryY=0.75;entryDx=0;entryDy=0;strokeColor=default;align=center;verticalAlign=middle;fontFamily=Helvetica;fontSize=11;fontColor=default;labelBackgroundColor=default;endArrow=none;endFill=0;" edge="1" parent="1" source="6hXu5btZvPiJTdBJPoFO-326" target="6hXu5btZvPiJTdBJPoFO-311">
          <mxGeometry relative="1" as="geometry" />
        </mxCell>
        <mxCell id="6hXu5btZvPiJTdBJPoFO-326" value="Date" style="ellipse;whiteSpace=wrap;html=1;fontSize=10;strokeWidth=1;" vertex="1" parent="1">
          <mxGeometry x="-298.82" y="660.5" width="60" height="32.5" as="geometry" />
        </mxCell>
        <mxCell id="6hXu5btZvPiJTdBJPoFO-329" style="edgeStyle=orthogonalEdgeStyle;rounded=0;orthogonalLoop=1;jettySize=auto;html=1;entryX=1;entryY=0.75;entryDx=0;entryDy=0;strokeColor=default;align=center;verticalAlign=middle;fontFamily=Helvetica;fontSize=11;fontColor=default;labelBackgroundColor=default;endArrow=none;endFill=0;" edge="1" parent="1" source="6hXu5btZvPiJTdBJPoFO-327" target="6hXu5btZvPiJTdBJPoFO-311">
          <mxGeometry relative="1" as="geometry">
            <Array as="points">
              <mxPoint x="-110" y="638" />
              <mxPoint x="-120" y="638" />
            </Array>
          </mxGeometry>
        </mxCell>
        <mxCell id="6hXu5btZvPiJTdBJPoFO-327" value="Content" style="ellipse;whiteSpace=wrap;html=1;fontSize=10;strokeWidth=1;" vertex="1" parent="1">
          <mxGeometry x="-139.67000000000002" y="660.5" width="60" height="37.5" as="geometry" />
        </mxCell>
        <mxCell id="6hXu5btZvPiJTdBJPoFO-331" value="CommentID" style="ellipse;whiteSpace=wrap;html=1;fontSize=10;strokeWidth=1;" vertex="1" parent="1">
          <mxGeometry x="-228.75" y="663.5" width="72.5" height="36.5" as="geometry" />
        </mxCell>
        <mxCell id="6hXu5btZvPiJTdBJPoFO-332" style="edgeStyle=orthogonalEdgeStyle;rounded=0;orthogonalLoop=1;jettySize=auto;html=1;entryX=0.477;entryY=1.005;entryDx=0;entryDy=0;entryPerimeter=0;strokeColor=default;align=center;verticalAlign=middle;fontFamily=Helvetica;fontSize=11;fontColor=default;labelBackgroundColor=default;endArrow=none;endFill=0;" edge="1" parent="1" source="6hXu5btZvPiJTdBJPoFO-331" target="6hXu5btZvPiJTdBJPoFO-311">
          <mxGeometry relative="1" as="geometry">
            <Array as="points">
              <mxPoint x="-192" y="660" />
              <mxPoint x="-192" y="660" />
            </Array>
          </mxGeometry>
        </mxCell>
        <mxCell id="6hXu5btZvPiJTdBJPoFO-333" value="Comment" style="rounded=0;whiteSpace=wrap;html=1;fontSize=12;strokeWidth=1;" vertex="1" parent="1">
          <mxGeometry x="-233.9999999999999" y="608.5" width="88" height="35" as="geometry" />
        </mxCell>
        <mxCell id="6hXu5btZvPiJTdBJPoFO-340" style="edgeStyle=orthogonalEdgeStyle;rounded=0;orthogonalLoop=1;jettySize=auto;html=1;strokeColor=default;align=center;verticalAlign=middle;fontFamily=Helvetica;fontSize=11;fontColor=default;labelBackgroundColor=default;endArrow=none;endFill=0;exitX=-0.004;exitY=0.458;exitDx=0;exitDy=0;exitPerimeter=0;entryX=0.42;entryY=0.923;entryDx=0;entryDy=0;entryPerimeter=0;" edge="1" parent="1" source="6hXu5btZvPiJTdBJPoFO-311" target="6hXu5btZvPiJTdBJPoFO-336">
          <mxGeometry relative="1" as="geometry">
            <mxPoint x="-244" y="624" as="sourcePoint" />
            <mxPoint x="-274" y="564" as="targetPoint" />
            <Array as="points">
              <mxPoint x="-274" y="624" />
            </Array>
          </mxGeometry>
        </mxCell>
        <mxCell id="6hXu5btZvPiJTdBJPoFO-341" style="edgeStyle=orthogonalEdgeStyle;rounded=0;orthogonalLoop=1;jettySize=auto;html=1;strokeColor=default;align=center;verticalAlign=middle;fontFamily=Helvetica;fontSize=11;fontColor=default;labelBackgroundColor=default;endArrow=none;endFill=0;exitX=1;exitY=0.25;exitDx=0;exitDy=0;entryX=0.409;entryY=0.909;entryDx=0;entryDy=0;entryPerimeter=0;" edge="1" parent="1" source="6hXu5btZvPiJTdBJPoFO-311" target="6hXu5btZvPiJTdBJPoFO-337">
          <mxGeometry relative="1" as="geometry">
            <mxPoint x="-150" y="600" as="sourcePoint" />
            <mxPoint x="-116.66" y="554.25" as="targetPoint" />
            <Array as="points">
              <mxPoint x="-140" y="616" />
              <mxPoint x="-117" y="616" />
            </Array>
          </mxGeometry>
        </mxCell>
        <mxCell id="6hXu5btZvPiJTdBJPoFO-343" style="edgeStyle=orthogonalEdgeStyle;rounded=0;orthogonalLoop=1;jettySize=auto;html=1;strokeColor=default;align=center;verticalAlign=middle;fontFamily=Helvetica;fontSize=11;fontColor=default;labelBackgroundColor=default;endArrow=none;endFill=0;exitX=1.003;exitY=0.581;exitDx=0;exitDy=0;exitPerimeter=0;entryX=0.586;entryY=0.914;entryDx=0;entryDy=0;entryPerimeter=0;" edge="1" parent="1" target="6hXu5btZvPiJTdBJPoFO-337">
          <mxGeometry relative="1" as="geometry">
            <mxPoint x="-139.69999999999982" y="624.05" as="sourcePoint" />
            <mxPoint x="-105" y="560" as="targetPoint" />
            <Array as="points">
              <mxPoint x="-128" y="624" />
              <mxPoint x="-105" y="624" />
            </Array>
          </mxGeometry>
        </mxCell>
        <mxCell id="6hXu5btZvPiJTdBJPoFO-348" value="" style="endArrow=none;dashed=1;html=1;rounded=0;strokeColor=default;align=center;verticalAlign=middle;fontFamily=Helvetica;fontSize=12;fontColor=default;labelBackgroundColor=default;edgeStyle=orthogonalEdgeStyle;" edge="1" parent="1">
          <mxGeometry width="50" height="50" relative="1" as="geometry">
            <mxPoint x="-218.58000000000004" y="687.5" as="sourcePoint" />
            <mxPoint x="-166.42000000000002" y="687.5" as="targetPoint" />
            <Array as="points">
              <mxPoint x="-218.16000000000003" y="687.5" />
            </Array>
          </mxGeometry>
        </mxCell>
        <mxCell id="6hXu5btZvPiJTdBJPoFO-349" style="edgeStyle=orthogonalEdgeStyle;rounded=0;orthogonalLoop=1;jettySize=auto;html=1;entryX=0.101;entryY=0.398;entryDx=0;entryDy=0;strokeColor=default;align=center;verticalAlign=middle;fontFamily=Helvetica;fontSize=12;fontColor=default;labelBackgroundColor=default;endArrow=none;endFill=0;entryPerimeter=0;" edge="1" parent="1">
          <mxGeometry relative="1" as="geometry">
            <mxPoint x="-480.3199999999999" y="319.11" as="sourcePoint" />
            <mxPoint x="-398.21999999999997" y="319.11" as="targetPoint" />
          </mxGeometry>
        </mxCell>
        <mxCell id="6hXu5btZvPiJTdBJPoFO-350" value="StartPage" style="ellipse;whiteSpace=wrap;html=1;fontSize=10;strokeWidth=1;" vertex="1" parent="1">
          <mxGeometry x="-632.7900000000001" y="464.5" width="68.1" height="32.5" as="geometry" />
        </mxCell>
        <mxCell id="6hXu5btZvPiJTdBJPoFO-355" style="edgeStyle=orthogonalEdgeStyle;rounded=0;orthogonalLoop=1;jettySize=auto;html=1;strokeColor=default;align=center;verticalAlign=middle;fontFamily=Helvetica;fontSize=11;fontColor=default;labelBackgroundColor=default;endArrow=none;endFill=0;" edge="1" parent="1" source="6hXu5btZvPiJTdBJPoFO-351">
          <mxGeometry relative="1" as="geometry">
            <mxPoint x="-420" y="480" as="targetPoint" />
            <Array as="points">
              <mxPoint x="-538" y="510" />
              <mxPoint x="-430" y="510" />
              <mxPoint x="-430" y="490" />
              <mxPoint x="-420" y="490" />
            </Array>
          </mxGeometry>
        </mxCell>
        <mxCell id="6hXu5btZvPiJTdBJPoFO-351" value="EndPage" style="ellipse;whiteSpace=wrap;html=1;fontSize=10;strokeWidth=1;" vertex="1" parent="1">
          <mxGeometry x="-566.16" y="497" width="72" height="33" as="geometry" />
        </mxCell>
        <mxCell id="6hXu5btZvPiJTdBJPoFO-352" style="edgeStyle=orthogonalEdgeStyle;rounded=0;orthogonalLoop=1;jettySize=auto;html=1;strokeColor=default;align=center;verticalAlign=middle;fontFamily=Helvetica;fontSize=11;fontColor=default;labelBackgroundColor=default;endArrow=none;endFill=0;entryX=0.095;entryY=-0.002;entryDx=0;entryDy=0;entryPerimeter=0;" edge="1" parent="1" source="6hXu5btZvPiJTdBJPoFO-301" target="6hXu5btZvPiJTdBJPoFO-1">
          <mxGeometry relative="1" as="geometry">
            <mxPoint x="-410" y="440" as="targetPoint" />
            <Array as="points">
              <mxPoint x="-410" y="380" />
            </Array>
          </mxGeometry>
        </mxCell>
        <mxCell id="6hXu5btZvPiJTdBJPoFO-356" style="edgeStyle=orthogonalEdgeStyle;rounded=0;orthogonalLoop=1;jettySize=auto;html=1;strokeColor=default;align=center;verticalAlign=middle;fontFamily=Helvetica;fontSize=11;fontColor=default;labelBackgroundColor=default;endArrow=none;endFill=0;" edge="1" parent="1" source="6hXu5btZvPiJTdBJPoFO-350">
          <mxGeometry relative="1" as="geometry">
            <mxPoint x="-420" y="480" as="targetPoint" />
            <Array as="points">
              <mxPoint x="-560" y="480" />
              <mxPoint x="-560" y="480" />
            </Array>
          </mxGeometry>
        </mxCell>
        <mxCell id="6hXu5btZvPiJTdBJPoFO-359" style="edgeStyle=orthogonalEdgeStyle;rounded=0;orthogonalLoop=1;jettySize=auto;html=1;strokeColor=default;align=center;verticalAlign=middle;fontFamily=Helvetica;fontSize=11;fontColor=default;labelBackgroundColor=default;endArrow=none;endFill=0;" edge="1" parent="1" source="6hXu5btZvPiJTdBJPoFO-10">
          <mxGeometry relative="1" as="geometry">
            <mxPoint x="-420" y="470" as="targetPoint" />
            <Array as="points">
              <mxPoint x="-554" y="470" />
            </Array>
          </mxGeometry>
        </mxCell>
        <mxCell id="6hXu5btZvPiJTdBJPoFO-360" value="EletronicISSN" style="ellipse;whiteSpace=wrap;html=1;fontSize=10;strokeWidth=1;" vertex="1" parent="1">
          <mxGeometry x="-704.0500000000001" y="934.38" width="78.61" height="40" as="geometry" />
        </mxCell>
        <mxCell id="6hXu5btZvPiJTdBJPoFO-361" style="edgeStyle=orthogonalEdgeStyle;rounded=0;orthogonalLoop=1;jettySize=auto;html=1;entryX=0.885;entryY=0.999;entryDx=0;entryDy=0;entryPerimeter=0;strokeColor=default;align=center;verticalAlign=middle;fontFamily=Helvetica;fontSize=11;fontColor=default;labelBackgroundColor=default;endArrow=none;endFill=0;" edge="1" parent="1" source="6hXu5btZvPiJTdBJPoFO-360" target="6hXu5btZvPiJTdBJPoFO-34">
          <mxGeometry relative="1" as="geometry">
            <Array as="points">
              <mxPoint x="-664.95" y="897.38" />
              <mxPoint x="-727.95" y="897.38" />
              <mxPoint x="-727.95" y="884.38" />
            </Array>
          </mxGeometry>
        </mxCell>
        <mxCell id="6hXu5btZvPiJTdBJPoFO-379" style="edgeStyle=orthogonalEdgeStyle;rounded=0;orthogonalLoop=1;jettySize=auto;html=1;entryX=0.869;entryY=1.001;entryDx=0;entryDy=0;entryPerimeter=0;strokeColor=default;align=center;verticalAlign=middle;fontFamily=Helvetica;fontSize=11;fontColor=default;labelBackgroundColor=default;endArrow=none;endFill=0;" edge="1" parent="1" source="6hXu5btZvPiJTdBJPoFO-44" target="6hXu5btZvPiJTdBJPoFO-2">
          <mxGeometry relative="1" as="geometry" />
        </mxCell>
        <mxCell id="6hXu5btZvPiJTdBJPoFO-380" value="N" style="text;html=1;align=center;verticalAlign=middle;resizable=0;points=[];autosize=1;strokeColor=none;fillColor=none;fontFamily=Helvetica;fontSize=10;fontColor=default;labelBackgroundColor=default;" vertex="1" parent="1">
          <mxGeometry x="-371.71999999999997" y="412.5" width="30" height="30" as="geometry" />
        </mxCell>
        <mxCell id="6hXu5btZvPiJTdBJPoFO-386" value="" style="endArrow=none;html=1;rounded=0;strokeColor=default;align=center;verticalAlign=middle;fontFamily=Helvetica;fontSize=11;fontColor=default;labelBackgroundColor=default;edgeStyle=orthogonalEdgeStyle;" edge="1" parent="1">
          <mxGeometry width="50" height="50" relative="1" as="geometry">
            <mxPoint x="-865.9200000000001" y="315.75" as="sourcePoint" />
            <mxPoint x="-831.97" y="315.75" as="targetPoint" />
          </mxGeometry>
        </mxCell>
        <mxCell id="6hXu5btZvPiJTdBJPoFO-387" value="" style="endArrow=none;html=1;rounded=0;strokeColor=default;align=center;verticalAlign=middle;fontFamily=Helvetica;fontSize=11;fontColor=default;labelBackgroundColor=default;edgeStyle=orthogonalEdgeStyle;" edge="1" parent="1">
          <mxGeometry width="50" height="50" relative="1" as="geometry">
            <mxPoint x="-498.7600000000001" y="443.9700000000001" as="sourcePoint" />
            <mxPoint x="-464.81000000000006" y="443.9700000000001" as="targetPoint" />
          </mxGeometry>
        </mxCell>
        <mxCell id="6hXu5btZvPiJTdBJPoFO-393" value="" style="endArrow=none;html=1;rounded=0;strokeColor=default;align=center;verticalAlign=middle;fontFamily=Helvetica;fontSize=11;fontColor=default;labelBackgroundColor=default;edgeStyle=orthogonalEdgeStyle;jumpSize=6;endSize=6;" edge="1" parent="1">
          <mxGeometry width="50" height="50" relative="1" as="geometry">
            <mxPoint x="-562.69" y="396.89" as="sourcePoint" />
            <mxPoint x="-512.69" y="396.89" as="targetPoint" />
          </mxGeometry>
        </mxCell>
        <mxCell id="6hXu5btZvPiJTdBJPoFO-396" value="" style="endArrow=none;html=1;rounded=0;strokeColor=default;align=center;verticalAlign=middle;fontFamily=Helvetica;fontSize=11;fontColor=default;labelBackgroundColor=default;edgeStyle=orthogonalEdgeStyle;jumpSize=6;endSize=6;" edge="1" parent="1">
          <mxGeometry width="50" height="50" relative="1" as="geometry">
            <mxPoint x="-549.6600000000001" y="396.89" as="sourcePoint" />
            <mxPoint x="-499.6600000000001" y="396.89" as="targetPoint" />
          </mxGeometry>
        </mxCell>
        <mxCell id="6hXu5btZvPiJTdBJPoFO-398" value="" style="endArrow=none;html=1;rounded=0;strokeColor=default;align=center;verticalAlign=middle;fontFamily=Helvetica;fontSize=11;fontColor=default;labelBackgroundColor=default;edgeStyle=orthogonalEdgeStyle;" edge="1" parent="1">
          <mxGeometry width="50" height="50" relative="1" as="geometry">
            <mxPoint x="-790.1400000000002" y="959" as="sourcePoint" />
            <mxPoint x="-756.19" y="959" as="targetPoint" />
          </mxGeometry>
        </mxCell>
        <mxCell id="6hXu5btZvPiJTdBJPoFO-399" value="" style="endArrow=none;html=1;rounded=0;strokeColor=default;align=center;verticalAlign=middle;fontFamily=Helvetica;fontSize=11;fontColor=default;labelBackgroundColor=default;edgeStyle=orthogonalEdgeStyle;" edge="1" parent="1">
          <mxGeometry width="50" height="50" relative="1" as="geometry">
            <mxPoint x="-781.1400000000002" y="959" as="sourcePoint" />
            <mxPoint x="-747.19" y="959" as="targetPoint" />
          </mxGeometry>
        </mxCell>
        <mxCell id="6hXu5btZvPiJTdBJPoFO-400" value="" style="endArrow=none;html=1;rounded=0;strokeColor=default;align=center;verticalAlign=middle;fontFamily=Helvetica;fontSize=11;fontColor=default;labelBackgroundColor=default;edgeStyle=orthogonalEdgeStyle;" edge="1" parent="1">
          <mxGeometry width="50" height="50" relative="1" as="geometry">
            <mxPoint x="-448.6300000000002" y="800.58" as="sourcePoint" />
            <mxPoint x="-414.68000000000006" y="800.58" as="targetPoint" />
          </mxGeometry>
        </mxCell>
        <mxCell id="6hXu5btZvPiJTdBJPoFO-402" value="" style="endArrow=none;html=1;rounded=0;strokeColor=default;align=center;verticalAlign=middle;fontFamily=Helvetica;fontSize=11;fontColor=default;labelBackgroundColor=default;edgeStyle=orthogonalEdgeStyle;" edge="1" parent="1">
          <mxGeometry width="50" height="50" relative="1" as="geometry">
            <mxPoint x="-455.61000000000024" y="800.58" as="sourcePoint" />
            <mxPoint x="-421.6600000000001" y="800.58" as="targetPoint" />
          </mxGeometry>
        </mxCell>
        <mxCell id="6hXu5btZvPiJTdBJPoFO-403" value="" style="endArrow=none;html=1;rounded=0;strokeColor=default;align=center;verticalAlign=middle;fontFamily=Helvetica;fontSize=11;fontColor=default;labelBackgroundColor=default;edgeStyle=orthogonalEdgeStyle;" edge="1" parent="1">
          <mxGeometry width="50" height="50" relative="1" as="geometry">
            <mxPoint x="138.61999999999978" y="388.3100000000001" as="sourcePoint" />
            <mxPoint x="172.56999999999994" y="388.3100000000001" as="targetPoint" />
          </mxGeometry>
        </mxCell>
        <mxCell id="6hXu5btZvPiJTdBJPoFO-404" value="" style="endArrow=none;html=1;rounded=0;strokeColor=default;align=center;verticalAlign=middle;fontFamily=Helvetica;fontSize=11;fontColor=default;labelBackgroundColor=default;edgeStyle=orthogonalEdgeStyle;" edge="1" parent="1">
          <mxGeometry width="50" height="50" relative="1" as="geometry">
            <mxPoint x="-34.00000000000023" y="828.4200000000002" as="sourcePoint" />
            <mxPoint x="-0.05000000000006821" y="828.4200000000002" as="targetPoint" />
          </mxGeometry>
        </mxCell>
        <mxCell id="6hXu5btZvPiJTdBJPoFO-406" value="" style="endArrow=none;html=1;rounded=0;strokeColor=default;align=center;verticalAlign=middle;fontFamily=Helvetica;fontSize=11;fontColor=default;labelBackgroundColor=default;edgeStyle=orthogonalEdgeStyle;" edge="1" parent="1">
          <mxGeometry width="50" height="50" relative="1" as="geometry">
            <mxPoint x="-17.000000000000227" y="828.4200000000002" as="sourcePoint" />
            <mxPoint x="16.949999999999932" y="828.4200000000002" as="targetPoint" />
          </mxGeometry>
        </mxCell>
      </root>
    </mxGraphModel>
  </diagram>
</mxfile>
